<svg width="71.000000" height="71.000000" viewBox="0 0 71 71" fill="none" xmlns="http://www.w3.org/2000/svg" xmlns:xlink="http://www.w3.org/1999/xlink">
	<desc>
			Created with Pixso.
	</desc>
	<defs>
		<clipPath id="clip8_228">
			<rect id="bootstrap 1" rx="0.000000" width="70.000000" height="70.000000" transform="translate(0.500000 0.500000)" fill="white" fill-opacity="0"/>
		</clipPath>
	</defs>
	<g style="mix-blend-mode:luminosity">
		<rect id="bootstrap 1" rx="0.000000" width="70.000000" height="70.000000" transform="translate(0.500000 0.500000)" fill="#FFFFFF" fill-opacity="0"/>
		<g clip-path="url(#clip8_228)">
			<path id="bg" d="M71 59.16C71 65.67 65.67 71 59.16 71L11.83 71C5.32 71 0 65.67 0 59.16L0 11.83C0 5.32 5.32 0 11.83 0L59.16 0C65.67 0 71 5.32 71 11.83L71 59.16Z" fill="#563D7C" fill-opacity="1.000000" fill-rule="nonzero"/>
			<path id="Vector" d="M19.29 15.42L39.42 15.42C43.13 15.42 46.11 16.27 48.35 17.98C50.59 19.68 51.71 22.25 51.71 25.69C51.71 27.78 51.2 29.57 50.18 31.05C49.16 32.54 47.7 33.7 45.8 34.51L45.8 34.62C48.35 35.17 50.29 36.38 51.6 38.24C52.91 40.12 53.57 42.47 53.57 45.3C53.57 46.92 53.28 48.44 52.7 49.85C52.12 51.26 51.21 52.48 49.97 53.5C48.73 54.52 47.15 55.33 45.22 55.94C43.28 56.54 40.98 56.84 38.31 56.84L19.29 56.84L19.29 15.42ZM26.54 32.77L38.37 32.77C40.11 32.77 41.56 32.28 42.72 31.28C43.88 30.29 44.46 28.87 44.46 27.01C44.46 24.93 43.94 23.45 42.9 22.61C41.85 21.76 40.34 21.33 38.37 21.33L26.54 21.33L26.54 32.77ZM26.54 50.92L39.36 50.92C41.56 50.92 43.28 50.36 44.49 49.21C45.7 48.07 46.32 46.45 46.32 44.36C46.32 42.3 45.72 40.74 44.49 39.63C43.26 38.51 41.56 37.98 39.36 37.98L26.54 37.98L26.54 50.92Z" fill="#F3F2F0" fill-opacity="1.000000" fill-rule="nonzero"/>
		</g>
	</g>
</svg>
