<svg width="67.177795" height="81.900024" viewBox="0 0 67.1778 81.9" fill="none" xmlns="http://www.w3.org/2000/svg" xmlns:xlink="http://www.w3.org/1999/xlink">
	<desc>
			Created with Pixso.
	</desc>
	<defs/>
	<path id="337847128" d="M61.13 73.1L67.09 0.94L67.17 0L66.29 0L0.87 0L0 0L0.07 0.94L6.03 73.12L6.08 73.72L6.61 73.88L33.33 81.9L33.76 81.9L60.55 73.87L61.08 73.71L61.13 73.1Z" fill="#1572B6" fill-opacity="1.000000" fill-rule="evenodd"/>
	<path id="337847104" d="M62 5.11L33.58 5.11L33.58 76.64L56.66 69.72L62 5.11Z" fill="#35A8DB" fill-opacity="1.000000" fill-rule="evenodd"/>
	<path id="337846984" d="M33.55 24.33L13.51 33.35L14.18 42.28L33.55 33.33L54.16 23.8L55.02 14.67L33.55 24.33Z" fill="#E9E9E8" fill-opacity="1.000000" fill-rule="evenodd"/>
	<path id="337846144" d="M33.55 14.67L33.7 14.67L33.87 14.67L34.04 14.67L34.21 14.67L34.38 14.67L34.55 14.67L34.72 14.67L34.88 14.67L35.05 14.67L35.22 14.67L35.39 14.67L35.56 14.67L35.73 14.67L35.9 14.67L36.07 14.67L36.24 14.67L36.41 14.67L36.58 14.67L36.75 14.67L36.91 14.67L37.08 14.67L37.25 14.67L37.42 14.67L37.59 14.67L37.76 14.67L37.93 14.67L38.1 14.67L38.27 14.67L38.44 14.67L38.61 14.67L38.78 14.67L38.94 14.67L39.11 14.67L39.28 14.67L39.45 14.67L39.62 14.67L39.79 14.67L39.96 14.67L40.13 14.67L40.3 14.67L40.47 14.67L40.64 14.67L40.81 14.67L40.97 14.67L41.14 14.67L41.31 14.67L41.48 14.67L41.65 14.67L41.82 14.67L41.99 14.67L42.16 14.67L42.33 14.67L42.5 14.67L42.67 14.67L42.84 14.67L43 14.67L43.17 14.67L43.34 14.67L43.51 14.67L43.68 14.67L43.85 14.67L44.02 14.67L44.19 14.67L44.36 14.67L44.53 14.67L44.7 14.67L44.87 14.67L45.03 14.67L45.2 14.67L45.37 14.67L45.54 14.67L45.71 14.67L45.88 14.67L46.05 14.67L46.22 14.67L46.39 14.67L46.56 14.67L46.73 14.67L46.9 14.67L47.07 14.67L47.23 14.67L47.4 14.67L47.57 14.67L47.74 14.67L47.91 14.67L48.08 14.67L48.25 14.67L48.42 14.67L48.59 14.67L48.76 14.67L48.93 14.67L49.1 14.67L49.26 14.67L49.43 14.67L49.6 14.67L49.77 14.67L49.94 14.67L50.11 14.67L50.28 14.67L50.45 14.67L50.62 14.67L50.79 14.67L50.96 14.67L51.12 14.67L51.29 14.67L51.46 14.67L51.63 14.67L51.8 14.67L51.97 14.67L52.14 14.67L52.31 14.67L52.48 14.67L52.65 14.67L52.82 14.67L52.99 14.67L53.16 14.67L53.32 14.67L53.49 14.67L53.66 14.67L53.83 14.67L54 14.67L54.17 14.67L54.34 14.67L54.51 14.67L54.68 14.67L54.85 14.67L55.02 14.67L54.85 16.47L54.68 18.28L54.51 20.09L54.34 21.9L54.17 23.71L54.16 23.8L54 23.8L53.83 23.8L53.66 23.8L53.49 23.8L53.32 23.8L53.16 23.8L52.99 23.8L52.82 23.8L52.65 23.8L52.48 23.8L52.31 23.8L52.14 23.8L51.97 23.8L51.8 23.8L51.63 23.8L51.46 23.8L51.29 23.8L51.12 23.8L50.96 23.8L50.79 23.8L50.62 23.8L50.45 23.8L50.28 23.8L50.11 23.8L49.94 23.8L49.77 23.8L49.6 23.8L49.43 23.8L49.26 23.8L49.1 23.8L48.93 23.8L48.76 23.8L48.59 23.8L48.42 23.8L48.25 23.8L48.08 23.8L47.91 23.8L47.74 23.8L47.57 23.8L47.4 23.8L47.23 23.8L47.07 23.8L46.9 23.8L46.73 23.8L46.56 23.8L46.39 23.8L46.22 23.8L46.05 23.8L45.88 23.8L45.71 23.8L45.54 23.8L45.37 23.8L45.2 23.8L45.03 23.8L44.87 23.8L44.7 23.8L44.53 23.8L44.36 23.8L44.19 23.8L44.02 23.8L43.85 23.8L43.68 23.8L43.51 23.8L43.34 23.8L43.17 23.8L43 23.8L42.84 23.8L42.67 23.8L42.5 23.8L42.33 23.8L42.16 23.8L41.99 23.8L41.82 23.8L41.65 23.8L41.48 23.8L41.31 23.8L41.14 23.8L40.97 23.8L40.81 23.8L40.64 23.8L40.47 23.8L40.3 23.8L40.13 23.8L39.96 23.8L39.79 23.8L39.62 23.8L39.45 23.8L39.28 23.8L39.11 23.8L38.94 23.8L38.78 23.8L38.61 23.8L38.44 23.8L38.27 23.8L38.1 23.8L37.93 23.8L37.76 23.8L37.59 23.8L37.42 23.8L37.25 23.8L37.08 23.8L36.91 23.8L36.75 23.8L36.58 23.8L36.41 23.8L36.24 23.8L36.07 23.8L35.9 23.8L35.73 23.8L35.56 23.8L35.39 23.8L35.22 23.8L35.05 23.8L34.88 23.8L34.72 23.8L34.72 23.8L34.55 23.8L34.38 23.8L34.21 23.8L34.04 23.8L33.87 23.8L33.7 23.8L33.58 23.8L33.55 23.8L33.53 23.8L33.36 23.8L33.19 23.8L33.02 23.8L32.85 23.8L32.69 23.8L32.52 23.8L32.35 23.8L32.18 23.8L32.01 23.8L31.84 23.8L31.67 23.8L31.5 23.8L31.33 23.8L31.16 23.8L30.99 23.8L30.82 23.8L30.66 23.8L30.49 23.8L30.32 23.8L30.15 23.8L29.98 23.8L29.81 23.8L29.64 23.8L29.47 23.8L29.3 23.8L29.13 23.8L28.96 23.8L28.79 23.8L28.63 23.8L28.46 23.8L28.29 23.8L28.12 23.8L27.95 23.8L27.78 23.8L27.61 23.8L27.44 23.8L27.27 23.8L27.1 23.8L26.93 23.8L26.76 23.8L26.6 23.8L26.43 23.8L26.26 23.8L26.09 23.8L25.92 23.8L25.75 23.8L25.58 23.8L25.41 23.8L25.24 23.8L25.07 23.8L24.9 23.8L24.73 23.8L24.57 23.8L24.4 23.8L24.23 23.8L24.06 23.8L23.89 23.8L23.72 23.8L23.55 23.8L23.38 23.8L23.21 23.8L23.04 23.8L22.87 23.8L22.7 23.8L22.54 23.8L22.37 23.8L22.2 23.8L22.03 23.8L21.86 23.8L21.69 23.8L21.52 23.8L21.35 23.8L21.18 23.8L21.01 23.8L20.84 23.8L20.67 23.8L20.51 23.8L20.34 23.8L20.17 23.8L20 23.8L19.83 23.8L19.66 23.8L19.49 23.8L19.32 23.8L19.15 23.8L18.98 23.8L18.81 23.8L18.64 23.8L18.48 23.8L18.31 23.8L18.14 23.8L17.97 23.8L17.8 23.8L17.63 23.8L17.46 23.8L17.29 23.8L17.12 23.8L16.95 23.8L16.78 23.8L16.61 23.8L16.45 23.8L16.28 23.8L16.11 23.8L15.94 23.8L15.77 23.8L15.6 23.8L15.43 23.8L15.26 23.8L15.09 23.8L14.92 23.8L14.75 23.8L14.58 23.8L14.42 23.8L14.25 23.8L14.08 23.8L13.91 23.8L13.74 23.8L13.57 23.8L13.4 23.8L13.23 23.8L13.06 23.8L12.89 23.8L12.75 23.8L12.72 23.54L12.55 22.06L12.39 20.58L12.22 19.1L12.05 17.63L11.88 16.15L11.71 14.67L11.88 14.67L12.05 14.67L12.22 14.67L12.39 14.67L12.55 14.67L12.72 14.67L12.89 14.67L13.06 14.67L13.23 14.67L13.4 14.67L13.57 14.67L13.74 14.67L13.91 14.67L14.08 14.67L14.25 14.67L14.42 14.67L14.58 14.67L14.75 14.67L14.92 14.67L15.09 14.67L15.26 14.67L15.43 14.67L15.6 14.67L15.77 14.67L15.94 14.67L16.11 14.67L16.28 14.67L16.45 14.67L16.61 14.67L16.78 14.67L16.95 14.67L17.12 14.67L17.29 14.67L17.46 14.67L17.63 14.67L17.8 14.67L17.97 14.67L18.14 14.67L18.31 14.67L18.48 14.67L18.64 14.67L18.81 14.67L18.98 14.67L19.15 14.67L19.32 14.67L19.49 14.67L19.66 14.67L19.83 14.67L20 14.67L20.17 14.67L20.34 14.67L20.51 14.67L20.67 14.67L20.84 14.67L21.01 14.67L21.18 14.67L21.35 14.67L21.52 14.67L21.69 14.67L21.86 14.67L22.03 14.67L22.2 14.67L22.37 14.67L22.54 14.67L22.7 14.67L22.87 14.67L23.04 14.67L23.21 14.67L23.38 14.67L23.55 14.67L23.72 14.67L23.89 14.67L24.06 14.67L24.23 14.67L24.4 14.67L24.57 14.67L24.73 14.67L24.9 14.67L25.07 14.67L25.24 14.67L25.41 14.67L25.58 14.67L25.75 14.67L25.92 14.67L26.09 14.67L26.26 14.67L26.43 14.67L26.6 14.67L26.76 14.67L26.93 14.67L27.1 14.67L27.27 14.67L27.44 14.67L27.61 14.67L27.78 14.67L27.95 14.67L28.12 14.67L28.29 14.67L28.46 14.67L28.63 14.67L28.79 14.67L28.96 14.67L29.13 14.67L29.3 14.67L29.47 14.67L29.64 14.67L29.81 14.67L29.98 14.67L30.15 14.67L30.32 14.67L30.49 14.67L30.66 14.67L30.82 14.67L30.99 14.67L31.16 14.67L31.33 14.67L31.5 14.67L31.67 14.67L31.84 14.67L32.01 14.67L32.18 14.67L32.35 14.67L32.52 14.67L32.69 14.67L32.85 14.67L33.02 14.67L33.19 14.67L33.36 14.67L33.53 14.67L33.55 14.67Z" fill="#E9E9E8" fill-opacity="1.000000" fill-rule="evenodd"/>
	<path id="337846384" d="M13.54 33.35L53.43 33.35L52.71 42.38L14.21 42.28L13.54 33.35Z" fill="#E9E9E8" fill-opacity="1.000000" fill-rule="evenodd"/>
	<path id="337846192" d="M14.79 47.31L23.52 47.31L24.09 54.7L33.55 57.24L43.27 54.29L43.93 42.21L52.73 42.06L51.15 61.68L33.58 67.22L15.89 61.58L14.79 47.31Z" fill="#E9E9E8" fill-opacity="1.000000" fill-rule="evenodd"/>
	<path id="337846792" d="M33.58 33.31L54.16 23.8L55.02 14.67L33.58 24.31L33.58 33.31Z" fill="#FFFFFE" fill-opacity="1.000000" fill-rule="evenodd"/>
	<path id="337846480" d="M33.58 14.67L33.7 14.67L33.87 14.67L34.04 14.67L34.21 14.67L34.38 14.67L34.55 14.67L34.72 14.67L34.88 14.67L35.05 14.67L35.22 14.67L35.39 14.67L35.56 14.67L35.73 14.67L35.9 14.67L36.07 14.67L36.24 14.67L36.41 14.67L36.58 14.67L36.75 14.67L36.91 14.67L37.08 14.67L37.25 14.67L37.42 14.67L37.59 14.67L37.76 14.67L37.93 14.67L38.1 14.67L38.27 14.67L38.44 14.67L38.61 14.67L38.78 14.67L38.94 14.67L39.11 14.67L39.28 14.67L39.45 14.67L39.62 14.67L39.79 14.67L39.96 14.67L40.13 14.67L40.3 14.67L40.47 14.67L40.64 14.67L40.81 14.67L40.97 14.67L41.14 14.67L41.31 14.67L41.48 14.67L41.65 14.67L41.82 14.67L41.99 14.67L42.16 14.67L42.33 14.67L42.5 14.67L42.67 14.67L42.84 14.67L43 14.67L43.17 14.67L43.34 14.67L43.51 14.67L43.68 14.67L43.85 14.67L44.02 14.67L44.19 14.67L44.36 14.67L44.53 14.67L44.7 14.67L44.87 14.67L45.03 14.67L45.2 14.67L45.37 14.67L45.54 14.67L45.71 14.67L45.88 14.67L46.05 14.67L46.22 14.67L46.39 14.67L46.56 14.67L46.73 14.67L46.9 14.67L47.07 14.67L47.23 14.67L47.4 14.67L47.57 14.67L47.74 14.67L47.91 14.67L48.08 14.67L48.25 14.67L48.42 14.67L48.59 14.67L48.76 14.67L48.93 14.67L49.1 14.67L49.26 14.67L49.43 14.67L49.6 14.67L49.77 14.67L49.94 14.67L50.11 14.67L50.28 14.67L50.45 14.67L50.62 14.67L50.79 14.67L50.96 14.67L51.13 14.67L51.29 14.67L51.46 14.67L51.63 14.67L51.8 14.67L51.97 14.67L52.14 14.67L52.31 14.67L52.48 14.67L52.65 14.67L52.82 14.67L52.99 14.67L53.16 14.67L53.32 14.67L53.49 14.67L53.66 14.67L53.83 14.67L54 14.67L54.17 14.67L54.34 14.67L54.51 14.67L54.68 14.67L54.85 14.67L55.02 14.67L54.85 16.47L54.68 18.28L54.51 20.09L54.34 21.9L54.17 23.71L54.16 23.8L54 23.8L53.83 23.8L53.66 23.8L53.49 23.8L53.32 23.8L53.16 23.8L52.99 23.8L52.82 23.8L52.65 23.8L52.48 23.8L52.31 23.8L52.14 23.8L51.97 23.8L51.8 23.8L51.63 23.8L51.46 23.8L51.29 23.8L51.13 23.8L50.96 23.8L50.79 23.8L50.62 23.8L50.45 23.8L50.28 23.8L50.11 23.8L49.94 23.8L49.77 23.8L49.6 23.8L49.43 23.8L49.26 23.8L49.1 23.8L48.93 23.8L48.76 23.8L48.59 23.8L48.42 23.8L48.25 23.8L48.08 23.8L47.91 23.8L47.74 23.8L47.57 23.8L47.4 23.8L47.23 23.8L47.07 23.8L46.9 23.8L46.73 23.8L46.56 23.8L46.39 23.8L46.22 23.8L46.05 23.8L45.88 23.8L45.71 23.8L45.54 23.8L45.37 23.8L45.2 23.8L45.03 23.8L44.87 23.8L44.7 23.8L44.53 23.8L44.36 23.8L44.19 23.8L44.02 23.8L43.85 23.8L43.68 23.8L43.51 23.8L43.34 23.8L43.17 23.8L43 23.8L42.84 23.8L42.67 23.8L42.5 23.8L42.33 23.8L42.16 23.8L41.99 23.8L41.82 23.8L41.65 23.8L41.48 23.8L41.31 23.8L41.14 23.8L40.97 23.8L40.81 23.8L40.64 23.8L40.47 23.8L40.3 23.8L40.13 23.8L39.96 23.8L39.79 23.8L39.62 23.8L39.45 23.8L39.28 23.8L39.11 23.8L38.94 23.8L38.78 23.8L38.61 23.8L38.44 23.8L38.27 23.8L38.1 23.8L37.93 23.8L37.76 23.8L37.59 23.8L37.42 23.8L37.25 23.8L37.08 23.8L36.91 23.8L36.75 23.8L36.58 23.8L36.41 23.8L36.24 23.8L36.07 23.8L35.9 23.8L35.73 23.8L35.56 23.8L35.39 23.8L35.22 23.8L35.05 23.8L34.88 23.8L34.72 23.8L34.72 23.8L34.55 23.8L34.38 23.8L34.21 23.8L34.04 23.8L33.87 23.8L33.7 23.8L33.58 23.8L33.58 14.67Z" fill="#FFFFFE" fill-opacity="1.000000" fill-rule="evenodd"/>
	<path id="337845784" d="M33.58 33.35L53.43 33.35L52.71 42.38L33.58 42.33L33.58 33.35Z" fill="#FFFFFE" fill-opacity="1.000000" fill-rule="evenodd"/>
	<path id="337845328" d="M33.58 57.23L43.27 54.29L43.93 42.21L52.73 42.06L51.15 61.68L33.58 67.22L33.58 67.22L33.58 57.23Z" fill="#FFFFFE" fill-opacity="1.000000" fill-rule="evenodd"/>
</svg>
