<svg width="75.853149" height="91.999939" viewBox="0 0 75.8531 91.9999" fill="none" xmlns="http://www.w3.org/2000/svg" xmlns:xlink="http://www.w3.org/1999/xlink">
	<desc>
			Created with Pixso.
	</desc>
	<defs>
		<filter id="filter_42_3_dd" x="0.000000" y="0.000000" width="75.853149" height="91.999939" filterUnits="userSpaceOnUse" color-interpolation-filters="sRGB">
			<feFlood flood-opacity="0" result="BackgroundImageFix"/>
			<feColorMatrix in="SourceAlpha" type="matrix" values="0 0 0 0 0 0 0 0 0 0 0 0 0 0 0 0 0 0 127 0" result="hardAlpha"/>
			<feOffset dx="0" dy="4"/>
			<feGaussianBlur stdDeviation="1.33333"/>
			<feComposite in2="hardAlpha" operator="out" k2="-1" k3="1"/>
			<feColorMatrix type="matrix" values="0 0 0 0 0 0 0 0 0 0 0 0 0 0 0 0 0 0 0.25 0"/>
			<feBlend mode="normal" in2="BackgroundImageFix" result="effect_dropShadow_1"/>
			<feBlend mode="normal" in="SourceGraphic" in2="effect_dropShadow_1" result="shape"/>
		</filter>
	</defs>
	<g filter="url(#filter_42_3_dd)">
		<path d="M5.17 0C4.46 0 3.94 0.62 4 1.39L9.97 74.4C10.03 75.17 10.64 75.96 11.32 76.17L36.64 83.84C37.32 84.05 38.44 84.05 39.12 83.84L64.51 76.16C65.19 75.95 65.8 75.15 65.87 74.39L71.84 1.39C71.91 0.62 71.38 0 70.67 0L5.17 0ZM59.14 16.74C59.08 17.42 58.98 18.61 58.92 19.38L58.76 21.3C58.7 22.07 58.61 23.17 58.56 23.74C58.52 24.32 58.47 24.79 58.46 24.79C58.45 24.79 57.87 24.79 57.16 24.79L39.21 24.79C38.5 24.79 37.92 24.79 37.91 24.79C37.9 24.79 37.31 24.79 36.61 24.79L27.15 24.79C26.44 24.79 25.92 25.42 25.98 26.19L26.53 32.91C26.59 33.68 27.23 34.31 27.93 34.31L36.61 34.31C37.31 34.31 37.9 34.31 37.91 34.31C37.92 34.31 38.5 34.31 39.21 34.31L54.12 34.31C54.83 34.31 55.92 34.31 56.55 34.31C57.18 34.31 57.65 34.87 57.59 35.56C57.54 36.24 57.44 37.43 57.38 38.2L55.6 59.88C55.54 60.65 55.46 61.63 55.43 62.06C55.39 62.5 54.8 63.02 54.12 63.22L39.16 67.75C38.48 67.96 37.91 68.13 37.9 68.13C37.89 68.13 37.33 67.96 36.64 67.76L21.67 63.22C20.99 63.02 20.38 62.22 20.31 61.45L19.35 49.65C19.29 48.88 19.81 48.25 20.52 48.25L21.89 48.25C22.6 48.25 23.75 48.25 24.46 48.25L26.5 48.25C27.21 48.25 27.84 48.88 27.9 49.65L28.28 54.27C28.34 55.04 28.95 55.83 29.64 56.03L36.64 58.1C37.32 58.3 37.89 58.46 37.89 58.46C37.89 58.46 38.45 58.3 39.14 58.1L46.15 56.03C46.84 55.83 47.45 55.03 47.51 54.26L48.27 45.01C48.34 44.24 47.81 43.61 47.1 43.61L39.21 43.61C38.5 43.61 37.92 43.61 37.91 43.61C37.9 43.61 37.31 43.61 36.61 43.61L20.14 43.61C19.43 43.61 18.8 42.98 18.74 42.21L16.87 19.38C16.81 18.61 16.71 17.42 16.66 16.74C16.6 16.05 17.13 15.49 17.84 15.49L36.61 15.49C37.31 15.49 37.9 15.49 37.91 15.49C37.92 15.49 38.5 15.49 39.21 15.49L57.95 15.49C58.66 15.49 59.19 16.05 59.14 16.74Z" fill="#DD512A" fill-opacity="1.000000" fill-rule="nonzero"/>
	</g>
</svg>
