<svg width="79.134018" height="84.885742" viewBox="0 0 79.134 84.8857" fill="none" xmlns="http://www.w3.org/2000/svg" xmlns:xlink="http://www.w3.org/1999/xlink">
	<desc>
			Created with Pixso.
	</desc>
	<defs>
		<filter id="filter_8_243_dd" x="0.000000" y="0.000000" width="79.134018" height="84.885742" filterUnits="userSpaceOnUse" color-interpolation-filters="sRGB">
			<feFlood flood-opacity="0" result="BackgroundImageFix"/>
			<feColorMatrix in="SourceAlpha" type="matrix" values="0 0 0 0 0 0 0 0 0 0 0 0 0 0 0 0 0 0 127 0" result="hardAlpha"/>
			<feOffset dx="0" dy="4"/>
			<feGaussianBlur stdDeviation="1.33333"/>
			<feComposite in2="hardAlpha" operator="out" k2="-1" k3="1"/>
			<feColorMatrix type="matrix" values="0 0 0 0 0 0 0 0 0 0 0 0 0 0 0 0 0 0 0.25 0"/>
			<feBlend mode="normal" in2="BackgroundImageFix" result="effect_dropShadow_1"/>
			<feBlend mode="normal" in="SourceGraphic" in2="effect_dropShadow_1" result="shape"/>
		</filter>
		<clipPath id="clip8_243">
			<rect id="Unofficial_JavaScript_logo_2 1" width="71.134018" height="76.885719" transform="translate(4.000000 0.000000)" fill="white" fill-opacity="0"/>
		</clipPath>
	</defs>
	<g filter="url(#filter_8_243_dd)" style="mix-blend-mode:luminosity">
		<rect id="Unofficial_JavaScript_logo_2 1" width="71.134018" height="76.885719" transform="translate(4.000000 0.000000)" fill="#FFFFFF" fill-opacity="0"/>
		<g clip-path="url(#clip8_243)">
			<path id="Vector" d="" fill="#F7DF1E" fill-opacity="1.000000" fill-rule="nonzero"/>
			<path id="Vector" d="M51.78 60.06C53.21 62.59 55.08 64.45 58.37 64.45C61.14 64.45 62.91 62.95 62.91 60.89C62.91 58.41 61.09 57.53 58.05 56.09L56.37 55.31C51.55 53.09 48.35 50.31 48.35 44.43C48.35 39.01 52.17 34.89 58.14 34.89C62.39 34.89 65.44 36.48 67.64 40.67L62.44 44.28C61.29 42.06 60.06 41.19 58.14 41.19C56.18 41.19 54.94 42.53 54.94 44.28C54.94 46.45 56.18 47.33 59.05 48.67L60.72 49.44C66.4 52.08 69.6 54.76 69.6 60.79C69.6 67.3 64.88 70.86 58.53 70.86C52.32 70.86 48.31 67.66 46.35 63.47L51.78 60.06ZM28.17 60.69C29.22 62.7 30.17 64.4 32.47 64.4C34.66 64.4 36.05 63.48 36.05 59.86L36.05 35.3L42.73 35.3L42.73 59.96C42.73 67.44 38.68 70.85 32.75 70.85C27.4 70.85 24.3 67.85 22.72 64.25L28.17 60.69Z" fill="#F3F2F0" fill-opacity="1.000000" fill-rule="nonzero"/>
		</g>
	</g>
</svg>
