<svg width="83.773193" height="89.900024" viewBox="0 0 83.7732 89.9" fill="none" xmlns="http://www.w3.org/2000/svg" xmlns:xlink="http://www.w3.org/1999/xlink">
	<desc>
			Created with Pixso.
	</desc>
	<defs>
		<filter id="filter_8_235_dd" x="0.000000" y="0.000000" width="83.773193" height="89.900024" filterUnits="userSpaceOnUse" color-interpolation-filters="sRGB">
			<feFlood flood-opacity="0" result="BackgroundImageFix"/>
			<feColorMatrix in="SourceAlpha" type="matrix" values="0 0 0 0 0 0 0 0 0 0 0 0 0 0 0 0 0 0 127 0" result="hardAlpha"/>
			<feOffset dx="0" dy="4"/>
			<feGaussianBlur stdDeviation="1.33333"/>
			<feComposite in2="hardAlpha" operator="out" k2="-1" k3="1"/>
			<feColorMatrix type="matrix" values="0 0 0 0 0 0 0 0 0 0 0 0 0 0 0 0 0 0 0.25 0"/>
			<feBlend mode="normal" in2="BackgroundImageFix" result="effect_dropShadow_1"/>
			<feBlend mode="normal" in="SourceGraphic" in2="effect_dropShadow_1" result="shape"/>
		</filter>
		<clipPath id="clip8_235">
			<rect id="jquery 1" rx="0.000000" width="74.773193" height="80.900002" transform="translate(4.500000 0.500000)" fill="white" fill-opacity="0"/>
		</clipPath>
	</defs>
	<g filter="url(#filter_8_235_dd)" style="mix-blend-mode:luminosity">
		<rect id="jquery 1" rx="0.000000" width="74.773193" height="80.900002" transform="translate(4.500000 0.500000)" fill="#FFFFFF" fill-opacity="0"/>
		<g clip-path="url(#clip8_235)">
			<path id="Vector" d="M9.07 20.16C2.43 30.48 3.26 43.9 8.33 54.86C8.45 55.12 8.58 55.38 8.7 55.64C8.78 55.81 8.86 55.97 8.94 56.13C8.99 56.23 9.04 56.33 9.09 56.42C9.18 56.59 9.26 56.76 9.35 56.93C9.51 57.23 9.67 57.53 9.84 57.83C9.93 57.99 10.02 58.16 10.11 58.32C10.3 58.64 10.48 58.96 10.68 59.27C10.76 59.4 10.83 59.54 10.92 59.67C11.18 60.1 11.45 60.52 11.73 60.94C11.74 60.95 11.75 60.96 11.75 60.97C11.8 61.04 11.85 61.11 11.89 61.17C12.13 61.53 12.38 61.89 12.63 62.24C12.73 62.37 12.82 62.5 12.91 62.62C13.14 62.93 13.37 63.23 13.6 63.53C13.68 63.65 13.77 63.76 13.86 63.87C14.17 64.27 14.49 64.66 14.82 65.05C14.82 65.06 14.83 65.07 14.83 65.07C14.85 65.09 14.86 65.1 14.87 65.12C15.19 65.49 15.51 65.86 15.84 66.22C15.94 66.34 16.05 66.45 16.15 66.56C16.41 66.84 16.67 67.11 16.93 67.38C17.03 67.49 17.14 67.6 17.25 67.71C17.59 68.06 17.95 68.41 18.31 68.75C18.31 68.76 18.32 68.77 18.32 68.77C18.39 68.83 18.45 68.88 18.51 68.94C18.83 69.24 19.15 69.53 19.47 69.82C19.61 69.94 19.74 70.05 19.87 70.16C20.14 70.39 20.41 70.62 20.68 70.84C20.82 70.96 20.96 71.08 21.11 71.2C21.41 71.43 21.71 71.67 22.01 71.9C22.12 71.98 22.23 72.07 22.34 72.15C22.37 72.17 22.4 72.2 22.43 72.22C22.72 72.43 23.01 72.64 23.31 72.85C23.43 72.94 23.56 73.03 23.69 73.12C24.14 73.43 24.59 73.73 25.06 74.03C25.18 74.1 25.31 74.18 25.44 74.26C25.78 74.47 26.12 74.68 26.47 74.88C26.65 74.99 26.85 75.1 27.04 75.2C27.28 75.34 27.52 75.48 27.77 75.61C27.83 75.64 27.89 75.67 27.94 75.7C28.04 75.75 28.15 75.81 28.25 75.86C28.63 76.06 29.02 76.26 29.41 76.44C29.5 76.48 29.58 76.52 29.66 76.56C30.11 76.78 30.56 76.98 31.02 77.18C31.13 77.22 31.25 77.27 31.36 77.32C31.78 77.49 32.21 77.67 32.64 77.83C32.7 77.85 32.75 77.87 32.8 77.89C33.28 78.07 33.75 78.24 34.24 78.4C34.35 78.44 34.47 78.48 34.58 78.51C35.07 78.67 35.56 78.86 36.06 78.96C68.18 85.29 77.51 58.1 77.51 58.1C69.68 69.14 55.77 72.05 42.59 68.81C42.09 68.68 41.61 68.52 41.12 68.36C40.99 68.32 40.87 68.28 40.75 68.24C40.28 68.08 39.8 67.92 39.34 67.74C39.27 67.72 39.21 67.69 39.14 67.67C38.72 67.51 38.31 67.34 37.89 67.17C37.77 67.12 37.66 67.07 37.54 67.02C37.09 66.82 36.64 66.62 36.19 66.41C36.1 66.37 36.01 66.33 35.92 66.28C35.54 66.1 35.16 65.91 34.79 65.71C34.68 65.65 34.57 65.6 34.46 65.54C34.16 65.38 33.87 65.22 33.58 65.06C33.38 64.95 33.18 64.84 32.99 64.72C32.64 64.52 32.29 64.3 31.94 64.09C31.82 64.01 31.7 63.94 31.58 63.87C31.12 63.58 30.66 63.27 30.21 62.96C30.08 62.88 29.96 62.78 29.84 62.7C29.51 62.47 29.18 62.23 28.86 61.99C28.75 61.92 28.65 61.83 28.55 61.75C28.24 61.52 27.93 61.28 27.62 61.03C27.48 60.92 27.35 60.81 27.21 60.7C26.93 60.47 26.66 60.23 26.38 59.99C26.26 59.89 26.13 59.78 26.01 59.67C25.66 59.36 25.31 59.05 24.97 58.73C24.93 58.69 24.9 58.66 24.86 58.62C24.49 58.27 24.12 57.91 23.77 57.55C23.66 57.44 23.56 57.34 23.46 57.23C23.19 56.96 22.93 56.68 22.67 56.4C22.57 56.29 22.47 56.18 22.37 56.07C22.04 55.71 21.72 55.34 21.4 54.97C21.39 54.95 21.37 54.93 21.36 54.91C21.02 54.52 20.7 54.12 20.38 53.71C20.3 53.6 20.21 53.49 20.13 53.39C19.89 53.08 19.65 52.76 19.42 52.45C19.34 52.33 19.25 52.22 19.17 52.1C18.89 51.71 18.62 51.33 18.35 50.93C11.04 40.15 8.41 25.27 14.26 13.05L9.07 20.16Z" fill="#F3F2F0" fill-opacity="1.000000" fill-rule="nonzero"/>
			<path id="Vector" d="M29.69 11.47C24.89 18.94 25.15 28.94 28.89 36.84C29.52 38.16 30.23 39.45 31.02 40.67C31.74 41.79 32.54 43.11 33.49 44.01C33.84 44.42 34.2 44.82 34.57 45.22C34.66 45.32 34.76 45.42 34.85 45.52C35.21 45.89 35.58 46.27 35.95 46.62C35.97 46.64 35.98 46.65 36 46.67C36 46.67 36.01 46.67 36.01 46.68C36.43 47.07 36.86 47.45 37.29 47.83C37.39 47.91 37.49 47.99 37.59 48.07C38.02 48.44 38.47 48.8 38.93 49.14C38.94 49.15 38.96 49.16 38.97 49.17C39.17 49.32 39.38 49.46 39.58 49.6C39.68 49.67 39.78 49.75 39.88 49.81C40.2 50.04 40.53 50.26 40.87 50.47C40.92 50.51 40.97 50.53 41.01 50.56C41.3 50.74 41.6 50.92 41.89 51.09C42 51.16 42.1 51.21 42.21 51.27C42.41 51.39 42.62 51.5 42.82 51.62C42.85 51.63 42.89 51.65 42.92 51.66C43.34 51.89 43.77 52.1 44.2 52.31C44.3 52.35 44.39 52.39 44.49 52.43C44.84 52.59 45.19 52.75 45.54 52.9C45.69 52.96 45.84 53.02 45.99 53.08C46.31 53.2 46.64 53.32 46.96 53.44C47.11 53.49 47.25 53.54 47.4 53.59C47.86 53.75 48.32 53.94 48.8 54.03C73.6 58.47 79.32 37.83 79.32 37.83C74.16 45.86 64.17 49.7 53.5 46.71C53.03 46.57 52.56 46.43 52.1 46.27C51.96 46.22 51.82 46.17 51.67 46.12C51.35 46 51.02 45.88 50.69 45.75C50.54 45.7 50.39 45.64 50.25 45.58C49.89 45.43 49.54 45.28 49.19 45.11C49.1 45.07 49 45.03 48.91 44.98C48.47 44.78 48.04 44.56 47.61 44.34C47.39 44.22 47.18 44.1 46.96 43.98C46.84 43.91 46.71 43.84 46.59 43.77C46.31 43.61 46.04 43.44 45.77 43.27C45.7 43.23 45.64 43.19 45.57 43.15C45.24 42.94 44.91 42.72 44.58 42.49C44.48 42.42 44.38 42.35 44.28 42.28C44.06 42.13 43.85 41.97 43.63 41.82C43.18 41.48 42.73 41.12 42.29 40.76C42.19 40.67 42.09 40.59 41.99 40.5C37.32 36.52 33.62 31.07 31.87 24.9C30.02 18.5 30.42 11.31 33.61 5.48L29.69 11.47Z" fill="#F3F2F0" fill-opacity="1.000000" fill-rule="nonzero"/>
			<path id="Vector" d="M47.03 4.97C44.2 9.48 43.92 15.07 45.88 20.04C47.96 25.32 52.2 29.47 57.16 31.43C57.36 31.51 57.56 31.58 57.77 31.66C57.86 31.69 57.95 31.72 58.04 31.75C58.33 31.85 58.62 31.97 58.93 32.03C72.62 34.89 76.33 24.43 77.32 22.89C74.07 27.96 68.6 29.17 61.89 27.41C61.36 27.27 60.78 27.07 60.27 26.87C59.61 26.62 58.97 26.33 58.34 26.01C57.15 25.39 56.02 24.64 54.96 23.78C48.96 18.85 45.23 9.46 49.15 1.81L47.03 4.97Z" fill="#F3F2F0" fill-opacity="1.000000" fill-rule="nonzero"/>
		</g>
	</g>
</svg>
