<svg width="78.869751" height="84.885742" viewBox="0 0 78.8698 84.8857" fill="none" xmlns="http://www.w3.org/2000/svg" xmlns:xlink="http://www.w3.org/1999/xlink">
	<desc>
			Created with Pixso.
	</desc>
	<defs>
		<filter id="filter_8_890_dd" x="0.000000" y="0.000000" width="78.869751" height="84.885742" filterUnits="userSpaceOnUse" color-interpolation-filters="sRGB">
			<feFlood flood-opacity="0" result="BackgroundImageFix"/>
			<feColorMatrix in="SourceAlpha" type="matrix" values="0 0 0 0 0 0 0 0 0 0 0 0 0 0 0 0 0 0 127 0" result="hardAlpha"/>
			<feOffset dx="0" dy="4"/>
			<feGaussianBlur stdDeviation="1.33333"/>
			<feComposite in2="hardAlpha" operator="out" k2="-1" k3="1"/>
			<feColorMatrix type="matrix" values="0 0 0 0 0 0 0 0 0 0 0 0 0 0 0 0 0 0 0.25 0"/>
			<feBlend mode="normal" in2="BackgroundImageFix" result="effect_dropShadow_1"/>
			<feBlend mode="normal" in="SourceGraphic" in2="effect_dropShadow_1" result="shape"/>
		</filter>
		<clipPath id="clip8_890">
			<rect id="Unofficial_JavaScript_logo_2 1" rx="0.000000" width="69.869812" height="75.885742" transform="translate(4.500000 0.500000)" fill="white" fill-opacity="0"/>
		</clipPath>
	</defs>
	<g filter="url(#filter_8_890_dd)" style="mix-blend-mode:normal">
		<rect id="Unofficial_JavaScript_logo_2 1" rx="0.000000" width="69.869812" height="75.885742" transform="translate(4.500000 0.500000)" fill="#FFFFFF" fill-opacity="0"/>
		<g clip-path="url(#clip8_890)">
			<path id="Vector" d="M4 0L74.86 0L74.86 76.88L4 76.88L4 0Z" fill="#F7DF1E" fill-opacity="1.000000" fill-rule="evenodd"/>
			<path id="Vector" d="M51.6 60.06C53.03 62.59 54.89 64.45 58.17 64.45C60.93 64.45 62.69 62.95 62.69 60.89C62.69 58.41 60.88 57.53 57.84 56.09L56.18 55.31C51.37 53.09 48.18 50.31 48.18 44.43C48.18 39.01 51.99 34.89 57.93 34.89C62.17 34.89 65.21 36.48 67.41 40.67L62.22 44.28C61.08 42.06 59.85 41.19 57.93 41.19C55.98 41.19 54.75 42.53 54.75 44.28C54.75 46.45 55.99 47.33 58.84 48.67L60.51 49.44C66.17 52.08 69.36 54.76 69.36 60.79C69.36 67.3 64.65 70.86 58.33 70.86C52.14 70.86 48.14 67.66 46.19 63.47L51.6 60.06ZM28.08 60.69C29.12 62.7 30.07 64.4 32.36 64.4C34.55 64.4 35.93 63.48 35.93 59.86L35.93 35.3L42.59 35.3L42.59 59.96C42.59 67.44 38.55 70.85 32.65 70.85C27.31 70.85 24.23 67.85 22.66 64.25L28.08 60.69Z" fill="#F3F2F0" fill-opacity="1.000000" fill-rule="nonzero"/>
		</g>
	</g>
</svg>
