<svg width="105.000000" height="55.000000" viewBox="0 0 105 55" fill="none" xmlns="http://www.w3.org/2000/svg" xmlns:xlink="http://www.w3.org/1999/xlink">
	<desc>
			Created with Pixso.
	</desc>
	<defs>
		<clipPath id="clip8_215">
			<rect id="php 1" rx="0.000000" width="104.000000" height="54.000000" transform="translate(0.500000 0.500000)" fill="white" fill-opacity="0"/>
		</clipPath>
		<radialGradient gradientTransform="translate(31.5212 9.64241) rotate(0) scale(68.9453 68.4832)" cx="0.000000" cy="0.000000" r="1.000000" id="paint_radial_8_217_0" gradientUnits="userSpaceOnUse">
			<stop stop-color="#FFFFFF"/>
			<stop offset="0.500000" stop-color="#4C6B97"/>
			<stop offset="1.000000" stop-color="#231F20"/>
		</radialGradient>
	</defs>
	<g style="mix-blend-mode:luminosity">
		<rect id="php 1" rx="0.000000" width="104.000000" height="54.000000" transform="translate(0.500000 0.500000)" fill="#FFFFFF" fill-opacity="0"/>
		<g clip-path="url(#clip8_215)">
			<path id="Vector" d="M105 27.41C105 42.56 81.49 54.83 52.5 54.83C23.5 54.83 0 42.56 0 27.41C0 12.27 23.5 0 52.5 0C81.49 0 105 12.27 105 27.41Z" fill="url(#paint_radial_8_217_0)" fill-opacity="1.000000" fill-rule="evenodd"/>
			<path id="Vector" d="M102.94 27.41C102.94 41.43 80.36 52.8 52.5 52.8C24.63 52.8 2.05 41.43 2.05 27.41C2.05 13.4 24.63 2.03 52.5 2.03C80.36 2.03 102.94 13.4 102.94 27.41Z" fill="#6181B6" fill-opacity="1.000000" fill-rule="evenodd"/>
			<path id="Vector" d="M62.71 35.64L65.21 22.85C65.78 19.96 65.29 17.8 63.82 16.45C62.38 15.15 59.92 14.5 56.31 14.5L51.96 14.5L53.19 8.14C53.23 7.9 53.19 7.65 53.03 7.45C52.86 7.25 52.66 7.17 52.41 7.17L46.42 7.17C46.01 7.17 45.69 7.45 45.6 7.82L42.94 21.38C42.69 19.84 42.12 18.53 41.13 17.47C39.37 15.48 36.62 14.46 32.89 14.46L21.36 14.46C20.95 14.46 20.63 14.74 20.54 15.11L15.17 42.65C15.13 42.9 15.17 43.14 15.33 43.34C15.5 43.55 15.7 43.63 15.95 43.63L21.98 43.63C22.39 43.63 22.72 43.34 22.8 42.98L24.11 36.34L28.58 36.34C30.92 36.34 32.93 36.09 34.45 35.6C36.05 35.07 37.48 34.22 38.75 33.04C39.78 32.1 40.64 31.04 41.3 29.9L40.23 35.4C40.19 35.64 40.23 35.89 40.4 36.09C40.56 36.3 40.76 36.38 41.01 36.38L47 36.38C47.41 36.38 47.74 36.09 47.82 35.72L50.77 20.65L54.87 20.65C56.64 20.65 57.13 20.98 57.29 21.14C57.42 21.26 57.66 21.75 57.38 23.26L55 35.44C54.96 35.68 55 35.93 55.16 36.13C55.33 36.34 55.53 36.42 55.78 36.42L61.93 36.42C62.3 36.3 62.63 36.01 62.71 35.64ZM34.98 25.05C34.61 26.97 33.91 28.35 32.89 29.12C31.86 29.9 30.18 30.31 27.97 30.31L25.3 30.31L27.23 20.45L30.67 20.45C33.22 20.45 34.24 20.98 34.65 21.42C35.19 22.08 35.31 23.34 34.98 25.05Z" fill="#F3F2F0" fill-opacity="1.000000" fill-rule="nonzero"/>
			<path id="Vector" d="M88.3 17.47C86.54 15.48 83.79 14.46 80.06 14.46L68.45 14.46C68.04 14.46 67.71 14.74 67.63 15.11L62.26 42.61C62.22 42.85 62.26 43.1 62.42 43.3C62.58 43.51 62.79 43.59 63.04 43.59L69.07 43.59C69.48 43.59 69.8 43.3 69.89 42.94L71.2 36.29L75.67 36.29C78.01 36.29 80.02 36.05 81.53 35.56C83.13 35.03 84.57 34.18 85.84 32.99C86.91 32.02 87.81 30.92 88.47 29.74C89.12 28.55 89.61 27.25 89.9 25.82C90.6 22.28 90.07 19.51 88.3 17.47ZM82.03 25.05C81.66 26.97 80.96 28.35 79.93 29.12C78.91 29.9 77.23 30.31 75.01 30.31L72.35 30.31L74.27 20.45L77.72 20.45C80.26 20.45 81.29 20.98 81.7 21.42C82.27 22.08 82.4 23.34 82.03 25.05Z" fill="#F3F2F0" fill-opacity="1.000000" fill-rule="nonzero"/>
			<path id="Vector" d="M30.67 19.63C32.97 19.63 34.49 20.04 35.27 20.9C36.05 21.75 36.21 23.18 35.8 25.21C35.39 27.33 34.57 28.88 33.38 29.78C32.19 30.67 30.39 31.12 27.97 31.12L24.32 31.12L26.57 19.63L30.67 19.63ZM15.99 42.77L22.02 42.77L23.46 35.48L28.62 35.48C30.92 35.48 32.77 35.24 34.24 34.75C35.72 34.26 37.03 33.48 38.26 32.34C39.29 31.41 40.11 30.39 40.72 29.29C41.34 28.19 41.79 26.97 42.04 25.62C42.69 22.36 42.2 19.84 40.6 18C39 16.17 36.46 15.27 32.97 15.27L21.36 15.27L15.99 42.77Z" fill="#F3F2F0" fill-opacity="1.000000" fill-rule="nonzero"/>
			<path id="Vector" d="M46.47 7.98L52.45 7.98L51.02 15.27L56.35 15.27C59.71 15.27 62.01 15.84 63.28 17.02C64.55 18.21 64.92 20.08 64.43 22.69L61.93 35.48L55.86 35.48L58.24 23.3C58.52 21.91 58.4 20.98 57.95 20.49C57.5 20 56.47 19.71 54.96 19.71L50.16 19.71L47.08 35.48L41.09 35.48L46.47 7.98Z" fill="#F3F2F0" fill-opacity="1.000000" fill-rule="nonzero"/>
			<path id="Vector" d="M77.72 19.63C80.02 19.63 81.53 20.04 82.31 20.9C83.09 21.75 83.26 23.18 82.85 25.21C82.44 27.33 81.62 28.88 80.43 29.78C79.24 30.67 77.43 31.12 75.01 31.12L71.36 31.12L73.62 19.63L77.72 19.63ZM63.04 42.77L69.07 42.77L70.5 35.48L75.67 35.48C77.97 35.48 79.81 35.24 81.29 34.75C82.76 34.26 84.08 33.48 85.31 32.34C86.33 31.41 87.15 30.39 87.77 29.29C88.38 28.19 88.83 26.97 89.08 25.62C89.74 22.36 89.25 19.84 87.65 18C86.05 16.17 83.5 15.27 80.02 15.27L68.41 15.27L63.04 42.77Z" fill="#F3F2F0" fill-opacity="1.000000" fill-rule="nonzero"/>
		</g>
	</g>
</svg>
