<svg width="74.000000" height="74.000000" viewBox="0 0 74 74" fill="none" xmlns="http://www.w3.org/2000/svg" xmlns:xlink="http://www.w3.org/1999/xlink">
	<desc>
			Created with Pixso.
	</desc>
	<defs>
		<clipPath id="clip8_202">
			<rect id="Wordpress-Logo 1" rx="0.000000" width="73.000000" height="73.000000" transform="translate(0.500000 0.500000)" fill="white" fill-opacity="0"/>
		</clipPath>
	</defs>
	<g style="mix-blend-mode:luminosity">
		<rect id="Wordpress-Logo 1" rx="0.000000" width="73.000000" height="73.000000" transform="translate(0.500000 0.500000)" fill="#FFFFFF" fill-opacity="0"/>
		<g clip-path="url(#clip8_202)">
			<path id="Vector" d="M36.99 5.18C45.29 5.18 52.85 8.36 58.51 13.57C55.74 13.49 52.97 15.14 52.85 18.92C52.62 26.56 61.99 28.19 56.94 43.56L52.76 56.27L41.39 22.76C41.21 22.25 41.42 21.95 42.06 21.95L45.27 21.95C45.44 21.95 45.57 21.81 45.57 21.63L45.57 19.73C45.57 19.55 45.44 19.4 45.27 19.41C39.18 19.68 33.13 19.68 27.11 19.41C26.94 19.4 26.81 19.55 26.81 19.73L26.81 21.63C26.81 21.81 26.94 21.95 27.11 21.95L30.34 21.95C31.06 21.95 31.27 22.19 31.43 22.65L36.11 35.43L29.08 56.66L17.52 22.63C17.38 22.2 17.55 21.95 17.96 21.95L21.65 21.95C21.82 21.95 21.95 21.81 21.95 21.63L21.95 19.73C21.95 19.55 21.81 19.4 21.65 19.41C17.78 19.62 13.9 19.66 10.29 19.7C15.96 10.96 25.8 5.18 36.99 5.18L36.99 5.18L36.99 5.18ZM64.97 21.84C67.42 26.35 68.81 31.51 68.81 36.99C68.81 49.03 62.12 59.5 52.26 64.91L62.18 36.8C63.72 32.45 65.15 26.58 64.97 21.84L64.97 21.84L64.97 21.84ZM47.64 66.98C44.31 68.16 40.73 68.81 36.99 68.81C33.77 68.81 30.67 68.33 27.74 67.44L37.54 39.35L47.64 66.98L47.64 66.98ZM23.38 65.75C12.62 60.65 5.18 49.69 5.18 36.99C5.18 32.29 6.2 27.82 8.04 23.8L23.38 65.75L23.38 65.75L23.38 65.75ZM36.99 2.19C56.21 2.19 71.79 17.78 71.79 36.99C71.79 56.21 56.21 71.79 36.99 71.79C17.78 71.79 2.19 56.21 2.19 36.99C2.19 17.78 17.78 2.19 36.99 2.19ZM36.99 -0.01C57.42 -0.01 73.99 16.56 73.99 36.99C73.99 57.42 57.42 73.99 36.99 73.99C16.56 73.99 -0.01 57.42 -0.01 36.99C-0.01 16.56 16.56 -0.01 36.99 -0.01Z" fill="#3AC8E8" fill-opacity="1.000000" fill-rule="evenodd"/>
		</g>
	</g>
</svg>
