<svg width="40.000000" height="40.000000" viewBox="0 0 40 40" fill="none" xmlns="http://www.w3.org/2000/svg" xmlns:xlink="http://www.w3.org/1999/xlink">
	<desc>
			Created with Pixso.
	</desc>
	<defs>
		<clipPath id="clip8_174">
			<rect id="bi:clock-history" rx="0.000000" width="39.000000" height="39.000000" transform="translate(0.500000 0.500000)" fill="white" fill-opacity="0"/>
		</clipPath>
	</defs>
	<rect id="bi:clock-history" rx="0.000000" width="39.000000" height="39.000000" transform="translate(0.500000 0.500000)" fill="#FFFFFF" fill-opacity="0"/>
	<g clip-path="url(#clip8_174)">
		<path id="Vector" d="M21.28 2.54C20.85 2.51 20.42 2.5 20 2.5L20 0C20.49 0 20.98 0.01 21.47 0.05L21.28 2.54ZM26.29 3.67C25.49 3.36 24.67 3.11 23.83 2.92L24.38 0.48C25.34 0.7 26.28 0.98 27.19 1.34L26.29 3.67ZM29.72 5.44C29.36 5.2 28.99 4.98 28.62 4.77L29.85 2.59C30.71 3.08 31.53 3.62 32.3 4.23L30.76 6.2C30.42 5.94 30.08 5.68 29.72 5.45L29.72 5.44ZM34.3 9.92C33.81 9.21 33.26 8.55 32.67 7.93L34.48 6.2C35.16 6.92 35.78 7.68 36.35 8.48L34.3 9.92ZM36.16 13.3C36 12.9 35.82 12.51 35.63 12.13L37.86 11C38.3 11.88 38.68 12.79 38.99 13.72L36.61 14.51C36.48 14.1 36.33 13.69 36.16 13.3ZM37.49 19.57C37.47 18.71 37.38 17.85 37.24 17L39.7 16.58C39.87 17.54 39.97 18.52 39.99 19.5L37.49 19.57L37.49 19.57ZM37.16 23.41C37.24 22.99 37.31 22.56 37.36 22.14L39.84 22.44C39.72 23.42 39.53 24.38 39.27 25.33L36.86 24.66C36.98 24.25 37.08 23.83 37.16 23.41ZM34.78 29.36C35.24 28.63 35.65 27.87 36 27.09L38.28 28.1C37.88 29 37.42 29.87 36.89 30.7L34.78 29.36ZM32.37 32.37C32.68 32.07 32.97 31.75 33.25 31.43L35.14 33.06C34.82 33.43 34.48 33.79 34.14 34.14L32.37 32.37Z" fill="#F3F2F0" fill-opacity="1.000000" fill-rule="evenodd"/>
		<path id="Vector" d="M20 2.5C17.12 2.5 14.28 3.21 11.75 4.56C9.21 5.92 7.04 7.88 5.45 10.27C3.85 12.67 2.86 15.42 2.58 18.28C2.3 21.14 2.73 24.03 3.83 26.69C4.93 29.35 6.67 31.7 8.89 33.52C11.12 35.35 13.76 36.6 16.58 37.16C19.4 37.72 22.32 37.58 25.08 36.74C27.83 35.91 30.34 34.4 32.37 32.37L34.14 34.14C31.81 36.46 28.95 38.18 25.8 39.14C22.65 40.09 19.32 40.26 16.09 39.62C12.86 38.97 9.84 37.55 7.3 35.46C4.76 33.37 2.77 30.69 1.51 27.65C0.25 24.61 -0.24 21.31 0.08 18.04C0.41 14.76 1.53 11.62 3.36 8.88C5.19 6.15 7.66 3.91 10.56 2.36C13.47 0.8 16.71 -0.01 20 0L20 2.5Z" fill="#F3F2F0" fill-opacity="1.000000" fill-rule="evenodd"/>
		<path id="Vector" d="M18.75 7.5C19.08 7.5 19.39 7.63 19.63 7.86C19.86 8.1 20 8.41 20 8.75L20 21.77L28.12 26.41C28.39 26.58 28.6 26.85 28.68 27.17C28.76 27.48 28.72 27.82 28.55 28.1C28.39 28.38 28.13 28.59 27.81 28.68C27.5 28.77 27.16 28.74 26.88 28.58L18.12 23.58C17.93 23.47 17.77 23.31 17.66 23.12C17.55 22.93 17.5 22.72 17.5 22.5L17.5 8.75C17.5 8.41 17.63 8.1 17.86 7.86C18.1 7.63 18.41 7.5 18.75 7.5Z" fill="#F3F2F0" fill-opacity="1.000000" fill-rule="evenodd"/>
	</g>
</svg>
