<svg width="40.000000" height="40.000000" viewBox="0 0 40 40" fill="none" xmlns="http://www.w3.org/2000/svg" xmlns:xlink="http://www.w3.org/1999/xlink">
	<desc>
			Created with Pixso.
	</desc>
	<defs>
		<clipPath id="clip8_160">
			<rect id="mdi:code-json" rx="0.000000" width="39.000000" height="39.000000" transform="translate(0.500000 0.500000)" fill="white" fill-opacity="0"/>
		</clipPath>
	</defs>
	<rect id="mdi:code-json" rx="0.000000" width="39.000000" height="39.000000" transform="translate(0.500000 0.500000)" fill="#FFFFFF" fill-opacity="0"/>
	<g clip-path="url(#clip8_160)">
		<path id="Vector" d="M8.33 5L11.66 5L11.66 8.33L8.33 8.33L8.33 16.66C8.33 17.55 7.98 18.39 7.35 19.02C6.73 19.64 5.88 20 5 20C5.88 20 6.73 20.35 7.35 20.97C7.98 21.6 8.33 22.44 8.33 23.33L8.33 31.66L11.66 31.66L11.66 35L8.33 35C6.55 34.55 5 33.5 5 31.66L5 25C5 24.11 4.64 23.26 4.02 22.64C3.39 22.01 2.55 21.66 1.66 21.66L0 21.66L0 18.33L1.66 18.33C2.55 18.33 3.39 17.98 4.02 17.35C4.64 16.73 5 15.88 5 15L5 8.33C5 7.44 5.35 6.6 5.97 5.97C6.6 5.35 7.44 5 8.33 5ZM31.66 5C32.55 5 33.39 5.35 34.02 5.97C34.64 6.6 35 7.44 35 8.33L35 15C35 15.88 35.35 16.73 35.97 17.35C36.6 17.98 37.44 18.33 38.33 18.33L40 18.33L40 21.66L38.33 21.66C37.44 21.66 36.6 22.01 35.97 22.64C35.35 23.26 35 24.11 35 25L35 31.66C35 32.55 34.64 33.39 34.02 34.02C33.39 34.64 32.55 35 31.66 35L28.33 35L28.33 31.66L31.66 31.66L31.66 23.33C31.66 22.44 32.01 21.6 32.64 20.97C33.26 20.35 34.11 20 35 20C34.11 20 33.26 19.64 32.64 19.02C32.01 18.39 31.66 17.55 31.66 16.66L31.66 8.33L28.33 8.33L28.33 5L31.66 5ZM20 25C20.44 25 20.86 25.17 21.17 25.48C21.49 25.8 21.66 26.22 21.66 26.66C21.66 27.1 21.49 27.53 21.17 27.84C20.86 28.15 20.44 28.33 20 28.33C19.55 28.33 19.13 28.15 18.82 27.84C18.5 27.53 18.33 27.1 18.33 26.66C18.33 26.22 18.5 25.8 18.82 25.48C19.13 25.17 19.55 25 20 25ZM13.33 25C13.77 25 14.19 25.17 14.51 25.48C14.82 25.8 15 26.22 15 26.66C15 27.1 14.82 27.53 14.51 27.84C14.19 28.15 13.77 28.33 13.33 28.33C12.89 28.33 12.46 28.15 12.15 27.84C11.84 27.53 11.66 27.1 11.66 26.66C11.66 26.22 11.84 25.8 12.15 25.48C12.46 25.17 12.89 25 13.33 25ZM26.66 25C27.1 25 27.53 25.17 27.84 25.48C28.15 25.8 28.33 26.22 28.33 26.66C28.33 27.1 28.15 27.53 27.84 27.84C27.53 28.15 27.1 28.33 26.66 28.33C26.22 28.33 25.8 28.15 25.48 27.84C25.17 27.53 25 27.1 25 26.66C25 26.22 25.17 25.8 25.48 25.48C25.8 25.17 26.22 25 26.66 25Z" fill="#F3F2F0" fill-opacity="1.000000" fill-rule="nonzero"/>
	</g>
</svg>
