<svg width="40.000000" height="40.000000" viewBox="0 0 40 40" fill="none" xmlns="http://www.w3.org/2000/svg" xmlns:xlink="http://www.w3.org/1999/xlink">
	<desc>
			Created with Pixso.
	</desc>
	<defs>
		<clipPath id="clip8_140">
			<rect id="file 1" rx="0.000000" width="39.000000" height="39.000000" transform="translate(0.500000 0.500000)" fill="white" fill-opacity="0"/>
		</clipPath>
	</defs>
	<rect id="file 1" rx="0.000000" width="39.000000" height="39.000000" transform="translate(0.500000 0.500000)" fill="#FFFFFF" fill-opacity="0"/>
	<g clip-path="url(#clip8_140)">
		<path id="Vector" d="M27.51 0L4.76 0L4.76 40L35.23 40L35.23 7.71L27.51 0ZM28.2 4L31.23 7.03L28.2 7.03L28.2 4ZM32.89 37.65L7.1 37.65L7.1 2.34L25.85 2.34L25.85 9.37L32.89 9.37L32.89 37.65Z" fill="#F3F2F0" fill-opacity="1.000000" fill-rule="nonzero"/>
		<path id="Vector" d="M11.79 14.14L28.2 14.14L28.2 16.48L11.79 16.48L11.79 14.14Z" fill="#F3F2F0" fill-opacity="1.000000" fill-rule="evenodd"/>
		<path id="Vector" d="M11.79 18.82L28.2 18.82L28.2 21.17L11.79 21.17L11.79 18.82Z" fill="#F3F2F0" fill-opacity="1.000000" fill-rule="evenodd"/>
		<path id="Vector" d="M11.79 23.51L28.2 23.51L28.2 25.85L11.79 25.85L11.79 23.51Z" fill="#F3F2F0" fill-opacity="1.000000" fill-rule="evenodd"/>
		<path id="Vector" d="M11.79 28.2L28.2 28.2L28.2 30.54L11.79 30.54L11.79 28.2Z" fill="#F3F2F0" fill-opacity="1.000000" fill-rule="evenodd"/>
	</g>
</svg>
