<svg width="48.000000" height="48.000000" viewBox="0 0 48 48" fill="none" xmlns="http://www.w3.org/2000/svg" xmlns:xlink="http://www.w3.org/1999/xlink">
	<desc>
			Created with Pixso.
	</desc>
	<defs>
		<filter id="filter_8_190_dd" x="0.000000" y="0.000000" width="48.000000" height="48.000000" filterUnits="userSpaceOnUse" color-interpolation-filters="sRGB">
			<feFlood flood-opacity="0" result="BackgroundImageFix"/>
			<feColorMatrix in="SourceAlpha" type="matrix" values="0 0 0 0 0 0 0 0 0 0 0 0 0 0 0 0 0 0 127 0" result="hardAlpha"/>
			<feOffset dx="0" dy="4"/>
			<feGaussianBlur stdDeviation="1.33333"/>
			<feComposite in2="hardAlpha" operator="out" k2="-1" k3="1"/>
			<feColorMatrix type="matrix" values="0 0 0 0 0 0 0 0 0 0 0 0 0 0 0 0 0 0 0.25 0"/>
			<feBlend mode="normal" in2="BackgroundImageFix" result="effect_dropShadow_1"/>
			<feBlend mode="normal" in="SourceGraphic" in2="effect_dropShadow_1" result="shape"/>
		</filter>
		<clipPath id="clip8_190">
			<rect id="cil:money" rx="0.000000" width="39.000000" height="39.000000" transform="translate(4.500000 0.500000)" fill="white" fill-opacity="0"/>
		</clipPath>
	</defs>
	<g filter="url(#filter_8_190_dd)">
		<rect id="cil:money" rx="0.000000" width="39.000000" height="39.000000" transform="translate(4.500000 0.500000)" fill="#FFFFFF" fill-opacity="0"/>
		<g clip-path="url(#clip8_190)">
			<path id="Vector" d="M37.75 5L5.25 5L5.25 30L37.75 30L37.75 5ZM35.25 27.5L7.75 27.5L7.75 7.5L35.25 7.5L35.25 27.5Z" fill="#F3F2F0" fill-opacity="1.000000" fill-rule="nonzero"/>
			<path id="Vector" d="M40.25 11.25L40.25 32.5L11.5 32.5L11.5 35L42.75 35L42.75 11.25L40.25 11.25Z" fill="#F3F2F0" fill-opacity="1.000000" fill-rule="nonzero"/>
			<path id="Vector" d="M21.5 23.62C24.6 23.62 27.12 20.88 27.12 17.51C27.12 14.13 24.6 11.39 21.5 11.39C18.39 11.39 15.87 14.13 15.87 17.51C15.87 20.88 18.39 23.62 21.5 23.62ZM21.5 13.89C23.22 13.89 24.62 15.51 24.62 17.51C24.62 19.5 23.22 21.12 21.5 21.12C19.77 21.12 18.37 19.5 18.37 17.51C18.37 15.51 19.77 13.89 21.5 13.89Z" fill="#F3F2F0" fill-opacity="1.000000" fill-rule="nonzero"/>
			<path id="Vector" d="M10.25 10.62L12.75 10.62L12.75 24.37L10.25 24.37L10.25 10.62Z" fill="#F3F2F0" fill-opacity="1.000000" fill-rule="nonzero"/>
			<path id="Vector" d="M30.25 10.62L32.75 10.62L32.75 24.37L30.25 24.37L30.25 10.62Z" fill="#F3F2F0" fill-opacity="1.000000" fill-rule="nonzero"/>
		</g>
	</g>
</svg>
