<svg width="40.000000" height="40.000000" viewBox="0 0 40 40" fill="none" xmlns="http://www.w3.org/2000/svg" xmlns:xlink="http://www.w3.org/1999/xlink">
	<desc>
			Created with Pixso.
	</desc>
	<defs>
		<clipPath id="clip8_166">
			<rect id="telephone-2 1" rx="0.000000" width="39.000000" height="39.000000" transform="translate(0.500000 0.500000)" fill="white" fill-opacity="0"/>
		</clipPath>
	</defs>
	<rect id="telephone-2 1" rx="0.000000" width="39.000000" height="39.000000" transform="translate(0.500000 0.500000)" fill="#FFFFFF" fill-opacity="0"/>
	<g clip-path="url(#clip8_166)">
		<path id="Vector" d="M21.3 28.58C17.21 26.14 13.79 22.73 11.35 18.63L16.52 13.47L6.58 3.52L2.41 7.69C-0.01 10.11 -0.69 13.8 0.73 16.87C2.63 20.97 5.08 24.75 8.01 28.09C12.22 32.89 17.32 36.66 23.18 39.31C26.18 40.67 29.8 39.96 32.2 37.57L36.41 33.36L26.46 23.41L21.3 28.58ZM30.54 35.91C28.83 37.62 26.26 38.13 24.14 37.18C12.19 31.78 5.97 22.62 2.86 15.89C1.85 13.71 2.33 11.08 4.07 9.35L6.58 6.84L13.21 13.47L8.44 18.24L8.87 19.01C11.68 24.08 15.85 28.25 20.92 31.07L21.7 31.5L26.46 26.73L33.09 33.36L30.54 35.91Z" fill="#F3F2F0" fill-opacity="1.000000" fill-rule="nonzero"/>
		<path id="Vector 10 (Stroke)" d="M26.8 14.09C25.45 12.78 23.7 12 22 12L22 10C24.29 10 26.54 11.04 28.19 12.65C29.85 14.27 31 16.52 31 19L29 19C29 17.14 28.14 15.39 26.8 14.09Z" fill="#F3F2F0" fill-opacity="1.000000" fill-rule="evenodd"/>
		<path id="Vector 11 (Stroke)" d="M29.55 11.27C27.45 9.24 24.7 8 22 8L22 6C25.29 6 28.54 7.5 30.94 9.84C33.35 12.18 35 15.43 35 19L33 19C33 16.06 31.64 13.31 29.55 11.27Z" fill="#F3F2F0" fill-opacity="1.000000" fill-rule="evenodd"/>
	</g>
</svg>
